<mxfile host="app.diagrams.net" agent="Mozilla/5.0 (Windows NT 10.0; Win64; x64) AppleWebKit/537.36 (KHTML, like Gecko) Chrome/129.0.0.0 Safari/537.36 Edg/129.0.0.0" version="24.7.17">
  <diagram name="PÃ¡gina-1" id="axVd1QwUCHLI96ytfGwO">
    <mxGraphModel dx="1042" dy="533" grid="1" gridSize="10" guides="1" tooltips="1" connect="1" arrows="1" fold="1" page="1" pageScale="1" pageWidth="827" pageHeight="1169" math="0" shadow="0">
      <root>
        <mxCell id="0" />
        <mxCell id="1" parent="0" />
        <mxCell id="irIf1rUgJS3vICtvANok-33" value="Membership System" style="rounded=1;whiteSpace=wrap;html=1;verticalAlign=top;" parent="1" vertex="1">
          <mxGeometry x="200" y="520" width="180" height="260" as="geometry" />
        </mxCell>
        <mxCell id="irIf1rUgJS3vICtvANok-31" value="Booking System" style="rounded=1;whiteSpace=wrap;html=1;verticalAlign=top;" parent="1" vertex="1">
          <mxGeometry x="200" y="10" width="180" height="480" as="geometry" />
        </mxCell>
        <mxCell id="irIf1rUgJS3vICtvANok-4" value="Gym Member" style="shape=umlActor;verticalLabelPosition=bottom;verticalAlign=top;html=1;outlineConnect=0;" parent="1" vertex="1">
          <mxGeometry x="30" y="330" width="30" height="60" as="geometry" />
        </mxCell>
        <mxCell id="irIf1rUgJS3vICtvANok-13" value="&lt;span id=&quot;docs-internal-guid-9bad511e-7fff-7c75-738a-3bb238ec5915&quot;&gt;&lt;span style=&quot;font-size: 11pt; font-family: Aptos; background-color: transparent; font-variant-numeric: normal; font-variant-east-asian: normal; font-variant-alternates: normal; font-variant-position: normal; vertical-align: baseline; white-space: pre-wrap;&quot;&gt;Instructor&lt;/span&gt;&lt;/span&gt;" style="shape=umlActor;verticalLabelPosition=bottom;verticalAlign=top;html=1;outlineConnect=0;" parent="1" vertex="1">
          <mxGeometry x="520" y="50" width="30" height="60" as="geometry" />
        </mxCell>
        <mxCell id="irIf1rUgJS3vICtvANok-15" value="Physiotherapist" style="shape=umlActor;verticalLabelPosition=bottom;verticalAlign=top;html=1;outlineConnect=0;" parent="1" vertex="1">
          <mxGeometry x="520" y="200" width="30" height="60" as="geometry" />
        </mxCell>
        <mxCell id="irIf1rUgJS3vICtvANok-16" value="Nutritionist" style="shape=umlActor;verticalLabelPosition=bottom;verticalAlign=top;html=1;outlineConnect=0;" parent="1" vertex="1">
          <mxGeometry x="520" y="380" width="30" height="60" as="geometry" />
        </mxCell>
        <mxCell id="irIf1rUgJS3vICtvANok-17" value="System" style="shape=umlActor;verticalLabelPosition=bottom;verticalAlign=top;html=1;outlineConnect=0;" parent="1" vertex="1">
          <mxGeometry x="520" y="590" width="30" height="60" as="geometry" />
        </mxCell>
        <mxCell id="irIf1rUgJS3vICtvANok-20" value="Book Sessions/Appointments" style="ellipse;whiteSpace=wrap;html=1;" parent="1" vertex="1">
          <mxGeometry x="220" y="50" width="140" height="90" as="geometry" />
        </mxCell>
        <mxCell id="irIf1rUgJS3vICtvANok-25" value="Reschedule Sessions/Appointments" style="ellipse;whiteSpace=wrap;html=1;" parent="1" vertex="1">
          <mxGeometry x="220" y="160" width="140" height="90" as="geometry" />
        </mxCell>
        <mxCell id="irIf1rUgJS3vICtvANok-26" value="Cancel Sessions/Appointments" style="ellipse;whiteSpace=wrap;html=1;" parent="1" vertex="1">
          <mxGeometry x="220" y="270" width="140" height="90" as="geometry" />
        </mxCell>
        <mxCell id="irIf1rUgJS3vICtvANok-27" value="Create Feedbacks" style="ellipse;whiteSpace=wrap;html=1;" parent="1" vertex="1">
          <mxGeometry x="220" y="560" width="140" height="90" as="geometry" />
        </mxCell>
        <mxCell id="irIf1rUgJS3vICtvANok-28" value="Create or Modify Memberships" style="ellipse;whiteSpace=wrap;html=1;" parent="1" vertex="1">
          <mxGeometry x="220" y="670" width="140" height="90" as="geometry" />
        </mxCell>
        <mxCell id="irIf1rUgJS3vICtvANok-30" value="Send and Receive Notifications" style="ellipse;whiteSpace=wrap;html=1;" parent="1" vertex="1">
          <mxGeometry x="220" y="380" width="140" height="90" as="geometry" />
        </mxCell>
        <mxCell id="irIf1rUgJS3vICtvANok-35" value="" style="endArrow=none;html=1;rounded=0;entryX=0;entryY=0.5;entryDx=0;entryDy=0;" parent="1" target="irIf1rUgJS3vICtvANok-20" edge="1">
          <mxGeometry width="50" height="50" relative="1" as="geometry">
            <mxPoint x="70" y="360" as="sourcePoint" />
            <mxPoint x="120" y="210" as="targetPoint" />
          </mxGeometry>
        </mxCell>
        <mxCell id="irIf1rUgJS3vICtvANok-36" value="" style="endArrow=none;html=1;rounded=0;entryX=0;entryY=0.5;entryDx=0;entryDy=0;" parent="1" target="irIf1rUgJS3vICtvANok-25" edge="1">
          <mxGeometry width="50" height="50" relative="1" as="geometry">
            <mxPoint x="70" y="360" as="sourcePoint" />
            <mxPoint x="230" y="105" as="targetPoint" />
          </mxGeometry>
        </mxCell>
        <mxCell id="irIf1rUgJS3vICtvANok-37" value="" style="endArrow=none;html=1;rounded=0;entryX=0;entryY=0.5;entryDx=0;entryDy=0;" parent="1" target="irIf1rUgJS3vICtvANok-26" edge="1">
          <mxGeometry width="50" height="50" relative="1" as="geometry">
            <mxPoint x="70" y="360" as="sourcePoint" />
            <mxPoint x="230" y="215" as="targetPoint" />
          </mxGeometry>
        </mxCell>
        <mxCell id="irIf1rUgJS3vICtvANok-38" value="" style="endArrow=none;html=1;rounded=0;entryX=0;entryY=0.5;entryDx=0;entryDy=0;" parent="1" target="irIf1rUgJS3vICtvANok-30" edge="1">
          <mxGeometry width="50" height="50" relative="1" as="geometry">
            <mxPoint x="70" y="360" as="sourcePoint" />
            <mxPoint x="230" y="325" as="targetPoint" />
          </mxGeometry>
        </mxCell>
        <mxCell id="irIf1rUgJS3vICtvANok-39" value="" style="endArrow=none;html=1;rounded=0;entryX=0;entryY=0.5;entryDx=0;entryDy=0;" parent="1" target="irIf1rUgJS3vICtvANok-27" edge="1">
          <mxGeometry width="50" height="50" relative="1" as="geometry">
            <mxPoint x="70" y="360" as="sourcePoint" />
            <mxPoint x="230" y="435" as="targetPoint" />
          </mxGeometry>
        </mxCell>
        <mxCell id="irIf1rUgJS3vICtvANok-40" value="" style="endArrow=none;html=1;rounded=0;entryX=0;entryY=0.5;entryDx=0;entryDy=0;" parent="1" target="irIf1rUgJS3vICtvANok-28" edge="1">
          <mxGeometry width="50" height="50" relative="1" as="geometry">
            <mxPoint x="70" y="360" as="sourcePoint" />
            <mxPoint x="180" y="727.5" as="targetPoint" />
          </mxGeometry>
        </mxCell>
        <mxCell id="irIf1rUgJS3vICtvANok-41" value="" style="endArrow=none;html=1;rounded=0;exitX=1;exitY=0.5;exitDx=0;exitDy=0;" parent="1" source="irIf1rUgJS3vICtvANok-20" edge="1">
          <mxGeometry width="50" height="50" relative="1" as="geometry">
            <mxPoint x="330" y="117.5" as="sourcePoint" />
            <mxPoint x="510" y="80" as="targetPoint" />
          </mxGeometry>
        </mxCell>
        <mxCell id="irIf1rUgJS3vICtvANok-42" value="" style="endArrow=none;html=1;rounded=0;exitX=1;exitY=0.5;exitDx=0;exitDy=0;" parent="1" source="irIf1rUgJS3vICtvANok-25" edge="1">
          <mxGeometry width="50" height="50" relative="1" as="geometry">
            <mxPoint x="370" y="105" as="sourcePoint" />
            <mxPoint x="510" y="80" as="targetPoint" />
          </mxGeometry>
        </mxCell>
        <mxCell id="irIf1rUgJS3vICtvANok-43" value="" style="endArrow=none;html=1;rounded=0;exitX=1;exitY=0.5;exitDx=0;exitDy=0;" parent="1" source="irIf1rUgJS3vICtvANok-26" edge="1">
          <mxGeometry width="50" height="50" relative="1" as="geometry">
            <mxPoint x="370" y="215" as="sourcePoint" />
            <mxPoint x="510" y="80" as="targetPoint" />
          </mxGeometry>
        </mxCell>
        <mxCell id="irIf1rUgJS3vICtvANok-45" value="" style="endArrow=none;html=1;rounded=0;exitX=1;exitY=0.5;exitDx=0;exitDy=0;" parent="1" source="irIf1rUgJS3vICtvANok-20" edge="1">
          <mxGeometry width="50" height="50" relative="1" as="geometry">
            <mxPoint x="440" y="260" as="sourcePoint" />
            <mxPoint x="520" y="235" as="targetPoint" />
          </mxGeometry>
        </mxCell>
        <mxCell id="irIf1rUgJS3vICtvANok-47" value="" style="endArrow=none;html=1;rounded=0;exitX=1;exitY=0.5;exitDx=0;exitDy=0;" parent="1" source="irIf1rUgJS3vICtvANok-25" edge="1">
          <mxGeometry width="50" height="50" relative="1" as="geometry">
            <mxPoint x="430" y="350" as="sourcePoint" />
            <mxPoint x="520" y="235" as="targetPoint" />
          </mxGeometry>
        </mxCell>
        <mxCell id="irIf1rUgJS3vICtvANok-50" value="" style="endArrow=none;html=1;rounded=0;exitX=1;exitY=0.5;exitDx=0;exitDy=0;" parent="1" source="irIf1rUgJS3vICtvANok-26" edge="1">
          <mxGeometry width="50" height="50" relative="1" as="geometry">
            <mxPoint x="370" y="470" as="sourcePoint" />
            <mxPoint x="520" y="235" as="targetPoint" />
          </mxGeometry>
        </mxCell>
        <mxCell id="irIf1rUgJS3vICtvANok-51" value="" style="endArrow=none;html=1;rounded=0;exitX=1;exitY=0.5;exitDx=0;exitDy=0;" parent="1" source="irIf1rUgJS3vICtvANok-20" edge="1">
          <mxGeometry width="50" height="50" relative="1" as="geometry">
            <mxPoint x="360" y="510" as="sourcePoint" />
            <mxPoint x="520" y="420" as="targetPoint" />
          </mxGeometry>
        </mxCell>
        <mxCell id="irIf1rUgJS3vICtvANok-53" value="" style="endArrow=none;html=1;rounded=0;exitX=1;exitY=0.5;exitDx=0;exitDy=0;" parent="1" source="irIf1rUgJS3vICtvANok-25" edge="1">
          <mxGeometry width="50" height="50" relative="1" as="geometry">
            <mxPoint x="340" y="115" as="sourcePoint" />
            <mxPoint x="520" y="420" as="targetPoint" />
          </mxGeometry>
        </mxCell>
        <mxCell id="irIf1rUgJS3vICtvANok-54" value="" style="endArrow=none;html=1;rounded=0;exitX=1;exitY=0.5;exitDx=0;exitDy=0;" parent="1" source="irIf1rUgJS3vICtvANok-26" edge="1">
          <mxGeometry width="50" height="50" relative="1" as="geometry">
            <mxPoint x="330" y="250" as="sourcePoint" />
            <mxPoint x="520" y="420" as="targetPoint" />
          </mxGeometry>
        </mxCell>
        <mxCell id="irIf1rUgJS3vICtvANok-55" value="" style="endArrow=none;html=1;rounded=0;exitX=1;exitY=0.5;exitDx=0;exitDy=0;" parent="1" source="irIf1rUgJS3vICtvANok-30" edge="1">
          <mxGeometry width="50" height="50" relative="1" as="geometry">
            <mxPoint x="360" y="520" as="sourcePoint" />
            <mxPoint x="520" y="625" as="targetPoint" />
          </mxGeometry>
        </mxCell>
      </root>
    </mxGraphModel>
  </diagram>
</mxfile>
